<svg width="116" height="19" viewBox="0 0 116 19" fill="none" xmlns="http://www.w3.org/2000/svg">
<path d="M9.168 0.863999C11.328 0.863999 13.112 1.432 14.52 2.568C15.944 3.704 16.864 5.24 17.28 7.176H12.936C12.616 6.392 12.12 5.776 11.448 5.328C10.792 4.88 10.008 4.656 9.096 4.656C7.896 4.656 6.928 5.096 6.192 5.976C5.456 6.856 5.088 8.032 5.088 9.504C5.088 10.976 5.456 12.152 6.192 13.032C6.928 13.896 7.896 14.328 9.096 14.328C10.008 14.328 10.792 14.104 11.448 13.656C12.12 13.208 12.616 12.6 12.936 11.832H17.28C16.864 13.752 15.944 15.288 14.52 16.44C13.112 17.576 11.328 18.144 9.168 18.144C7.52 18.144 6.072 17.784 4.824 17.064C3.576 16.328 2.608 15.304 1.92 13.992C1.248 12.68 0.912 11.184 0.912 9.504C0.912 7.824 1.248 6.328 1.92 5.016C2.608 3.704 3.576 2.688 4.824 1.968C6.072 1.232 7.52 0.863999 9.168 0.863999ZM30.8121 14.904H24.4521L23.3961 18H19.0761L25.2921 1.152H30.0201L36.2361 18H31.8681L30.8121 14.904ZM29.7561 11.784L27.6441 5.544L25.5081 11.784H29.7561ZM57.6313 1.152V18H53.5273V7.464L49.8793 18H46.3273L42.6553 7.44V18H38.5513V1.152H43.5673L48.1513 12.888L52.6393 1.152H57.6313ZM65.2894 12.048V18H61.1854V1.032H67.8334C69.8494 1.032 71.3854 1.536 72.4414 2.544C73.4974 3.536 74.0254 4.88 74.0254 6.576C74.0254 7.632 73.7854 8.576 73.3054 9.408C72.8414 10.224 72.1454 10.872 71.2174 11.352C70.2894 11.816 69.1614 12.048 67.8334 12.048H65.2894ZM67.3774 8.76C69.0254 8.76 69.8494 8.032 69.8494 6.576C69.8494 5.088 69.0254 4.344 67.3774 4.344H65.2894V8.76H67.3774ZM84.8287 0.767999C86.4287 0.767999 87.8767 1.144 89.1727 1.896C90.4847 2.632 91.5167 3.664 92.2687 4.992C93.0207 6.304 93.3967 7.792 93.3967 9.456C93.3967 11.12 93.0127 12.616 92.2447 13.944C91.4927 15.272 90.4607 16.312 89.1487 17.064C87.8527 17.8 86.4127 18.168 84.8287 18.168C83.2447 18.168 81.7967 17.8 80.4847 17.064C79.1887 16.312 78.1567 15.272 77.3887 13.944C76.6367 12.616 76.2607 11.12 76.2607 9.456C76.2607 7.792 76.6367 6.304 77.3887 4.992C78.1567 3.664 79.1887 2.632 80.4847 1.896C81.7967 1.144 83.2447 0.767999 84.8287 0.767999ZM84.8287 4.584C83.4847 4.584 82.4127 5.024 81.6127 5.904C80.8287 6.768 80.4367 7.952 80.4367 9.456C80.4367 10.944 80.8287 12.128 81.6127 13.008C82.4127 13.888 83.4847 14.328 84.8287 14.328C86.1567 14.328 87.2207 13.888 88.0207 13.008C88.8207 12.128 89.2207 10.944 89.2207 9.456C89.2207 7.968 88.8207 6.784 88.0207 5.904C87.2367 5.024 86.1727 4.584 84.8287 4.584ZM108.614 13.224C108.614 14.12 108.382 14.944 107.918 15.696C107.47 16.448 106.798 17.048 105.902 17.496C105.022 17.944 103.95 18.168 102.686 18.168C100.782 18.168 99.2142 17.704 97.9822 16.776C96.7502 15.848 96.0782 14.552 95.9662 12.888H100.334C100.398 13.528 100.622 14.032 101.006 14.4C101.406 14.768 101.91 14.952 102.518 14.952C103.046 14.952 103.462 14.808 103.766 14.52C104.07 14.232 104.222 13.848 104.222 13.368C104.222 12.936 104.078 12.576 103.79 12.288C103.518 12 103.174 11.768 102.758 11.592C102.342 11.4 101.766 11.176 101.03 10.92C99.9582 10.552 99.0782 10.2 98.3902 9.864C97.7182 9.512 97.1342 9 96.6382 8.328C96.1582 7.64 95.9182 6.752 95.9182 5.664C95.9182 4.656 96.1742 3.784 96.6862 3.048C97.1982 2.312 97.9022 1.752 98.7982 1.368C99.7102 0.967999 100.75 0.767999 101.918 0.767999C103.806 0.767999 105.302 1.216 106.406 2.112C107.526 3.008 108.158 4.24 108.302 5.808H103.862C103.782 5.248 103.574 4.808 103.238 4.488C102.918 4.152 102.478 3.984 101.918 3.984C101.438 3.984 101.046 4.112 100.742 4.368C100.454 4.624 100.31 5 100.31 5.496C100.31 5.896 100.438 6.24 100.694 6.528C100.966 6.8 101.302 7.024 101.702 7.2C102.102 7.376 102.678 7.6 103.43 7.872C104.518 8.24 105.406 8.608 106.094 8.976C106.782 9.328 107.374 9.848 107.87 10.536C108.366 11.224 108.614 12.12 108.614 13.224ZM115.131 13.896V18H110.883V13.896H115.131Z" fill="white"/>
</svg>
